<svg version="1.2" xmlns="http://www.w3.org/2000/svg" viewBox="0 0 800 190" width="150" height="36">
	<title>logo (1)</title>
	<style>
		.s0 { fill: #fafafa } 
		.s1 { fill: #304b5f } 
	</style>
	<g id="Layer 1">
		<g id="Carpeta 2">
			<path fill-rule="evenodd" class="s0" d="m606.2 183.7q-8 1.7-16 3.5-71.7 4.7-100-60.9-19.2-63.6 31.6-105.6 55.8-36.3 111.5 0.5 52.6 44.8 29.7 110.2-17.7 38.1-56.8 52.3z"/>
			<path fill-rule="evenodd" class="s0" d="m747.9 10.6q35.6 8.1 38.2 45.3-12 0-24.1 0-4.4-20-25.2-20.1-14 0.1-22.6 11.1-4.6 11.9 4.6 20.6 25.6 10.6 51.2 21.1 33 24.8 14.6 61.9-10.6 16-28.7 22.1-36.9 10.1-62.2-18.1-10.4-14.9-10.1-33.2 12.1-0.2 24.2 0.5 3.8 26.5 30.6 26.7 23.8 1.7 26.6-21.6-1.5-14-15-18.2-24.8-5.7-46.3-19.1-23.4-19.1-15.5-48.8 10.2-25.9 37.6-30.7 11-1 22.1 0.5z"/>
			<path fill-rule="evenodd" class="s0" d="m407.2 13.6q13.7 0 27.3 0-1.5 64.9-2.1 129.9 25.2 0 50.2 0 0.5 13.6-0.9 27.1-37.2 0-74.5 0 0-78.5 0-157z"/>
			<path fill-rule="evenodd" class="s0" d="m48.6 63.9q9 33 19.6 65.4 18.3-58.2 35.6-116.7 14.1 0 28.2 0-11.5 40.9-24.2 81.5-11.5 37.3-23.1 74.5-15.4 2-31.1 0-21.7-67.8-42.2-135.8-3.2-10-5-20.2 14-0.4 27.6 1 6.8 25.4 14.6 50.3z"/>
			<path fill-rule="evenodd" class="s0" d="m291.7 168.6q-5.5-10-11.1-20.1-19.6-36-40.1-71.4-2-6-5.5-11.1-0.9 52.3-0.6 104.6-13.4 0.5-26.6-1-0.8-78-0.5-156 15.1-0.5 30.2 1 28.1 52.1 56.7 103.7 0.8-52.3 0.5-104.7 13.2 0 26.2 0 0 78.5 0 157-14.1 0.2-28.1-0.5-0.9-0.6-1.1-1.5z"/>
			<path fill-rule="evenodd" class="s0" d="m376.1 13.6q1.6 78.2 2.1 157-13.2 0-26.2 0 0.3-72.4-1-144.9 0-6 0-12.1 12.6 0 25.1 0z"/>
			<path fill-rule="evenodd" class="s0" d="m153 13.6q13.2 0 26.2 0 0.3 78-0.5 156-13.1 2-26.1 0 0.4-78 0.4-156z"/>
			<path id="Layer copy" fill-rule="evenodd" class="s1" d="m585.6 123.7q-2.7 0.6-5.2 1.2-23 1.5-32.2-19.6-6.2-20.5 10.1-34 18-11.7 36 0.1 16.9 14.5 9.6 35.5-5.8 12.3-18.3 16.8z"/>
			<path id="Layer copy 3" fill-rule="evenodd" class="s0" d="m578.1 101.4q-0.5 0.1-1 0.2-4.7 0.3-6.4-3.9-1.3-4.2 2-6.9 3.6-2.4 7.2 0.1 3.3 2.8 1.9 7.1-1.1 2.4-3.7 3.4z"/>
		</g>
	</g>
</svg>