<svg version="1.2" xmlns="http://www.w3.org/2000/svg" viewBox="114.99999999999997 223 814.9999999999998 194" width="816" height="194">
	<title>undefined (1)</title>
	<style>
		.s0 { fill: #fafafa } 
		.s1 { fill: #304b5f } 
	</style>
	<g id="Layer 1">
		<g id="Carpeta 2">
			<path fill-rule="evenodd" class="s0" d="m733.1 410.3q-8.2 1.8-16.4 3.6-73.2 4.8-102.1-62.1-19.6-64.9 32.3-107.7 57-37 113.9 0.5 53.7 45.7 30.3 112.4-18.1 38.9-58 53.3z"/>
			<path fill-rule="evenodd" class="s0" d="m877.8 233.8q36.3 8.3 39 46.2-12.3 0-24.6 0-4.5-20.4-25.7-20.5-14.3 0.1-23.1 11.3-4.7 12.2 4.7 21 26.1 10.8 52.3 21.6 33.7 25.2 14.9 63.1-10.9 16.3-29.3 22.5-37.7 10.3-63.6-18.4-10.6-15.2-10.3-33.9 12.4-0.2 24.7 0.5 3.9 27 31.3 27.2 24.3 1.8 27.2-22-1.6-14.3-15.4-18.5-25.3-5.9-47.2-19.5-23.9-19.5-15.9-49.8 10.4-26.4 38.4-31.3 11.3-1 22.6 0.5z"/>
			<path fill-rule="evenodd" class="s0" d="m529.9 236.9q13.9 0 27.8 0-1.5 66.2-2.1 132.4 25.7 0 51.3 0 0.5 13.9-1 27.7-38 0-76 0 0-80.1 0-160.1z"/>
			<path fill-rule="evenodd" class="s0" d="m163.6 288.2q9.2 33.6 20 66.7 18.7-59.4 36.4-119 14.4 0 28.8 0-11.7 41.7-24.7 83.1-11.8 38-23.6 75.9-15.7 2.1-31.8 0-22.1-69.1-43.1-138.5-3.2-10.1-5.1-20.5 14.3-0.5 28.2 1 7 25.9 14.9 51.3z"/>
			<path fill-rule="evenodd" class="s0" d="m411.9 394.9q-5.6-10.2-11.3-20.5-20.1-36.7-41-72.8-2-6.1-5.6-11.3-0.9 53.3-0.6 106.7-13.7 0.5-27.2-1-0.8-79.6-0.5-159.1 15.4-0.5 30.8 1 28.7 53.1 58 105.7 0.8-53.3 0.5-106.7 13.4 0 26.7 0 0 80 0 160.1-14.4 0.2-28.7-0.5-0.9-0.6-1.1-1.6z"/>
			<path fill-rule="evenodd" class="s0" d="m498.1 236.9q1.6 79.7 2.1 160.1-13.4 0-26.7 0 0.3-73.9-1-147.8 0-6.1 0-12.3 12.8 0 25.6 0z"/>
			<path fill-rule="evenodd" class="s0" d="m270.3 236.9q13.4 0 26.7 0 0.3 79.5-0.5 159.1-13.4 2-26.7 0 0.4-79.6 0.5-159.1z"/>
			<path id="Layer copy" fill-rule="evenodd" class="s1" d="m712 349.2q-2.7 0.6-5.3 1.2-23.5 1.5-32.9-20-6.3-20.9 10.4-34.7 18.3-11.9 36.7 0.1 17.3 14.8 9.8 36.2-5.9 12.6-18.7 17.2z"/>
			<path id="Layer copy 3" fill-rule="evenodd" class="s0" d="m704.4 326.4q-0.5 0.1-1 0.2-4.8 0.3-6.6-4-1.3-4.2 2.1-7 3.6-2.4 7.3 0.1 3.4 2.9 2 7.2-1.2 2.5-3.8 3.5z"/>
		</g>
	</g>
</svg>