<svg version="1.2" xmlns="http://www.w3.org/2000/svg" viewBox="0 0 311 110" width="310" height="110">
	<title>page-not-found (2)</title>
	<style>
		.s0 { fill: #000000 } 
		.s1 { fill: #383838 } 
		.s2 { fill: #3a3a3a } 
		.s3 { fill: #a1b0b7 } 
		.s4 { fill: #304b5f } 
		.s5 { fill: #ffffff } 
	</style>
	<g id="Layer 1">
		<g id="Carpeta 1">
			<g id="Carpeta 2">
				<g id="Carpeta 3">
					<path id="&lt;Path&gt;" class="s0" d="m154.7 103.2c-27.7 0-50-22.4-50-50.1 0-27.7 22.3-50.1 50-50.1 27.7 0 50.1 22.4 50.1 50.1 0 27.7-22.4 50.1-50.1 50.1z"/>
					<path id="&lt;Path&gt;" class="s1" d="m135.7 93.3c-5.3-2.4-10.1-5.9-14.1-10.1-3.9-4.3-7-9.4-9.1-14.8-2-5.5-2.9-11.4-2.7-17.2 0.2-5.8 1.6-11.6 4-16.9 2.5-5.3 6-10.1 10.3-14.1 4.3-3.9 9.4-7 14.9-9 5.4-2 11.3-2.9 17.1-2.7 5.9 0.3 11.6 1.7 16.9 4.2-10.6-4.9-23.1-5.3-33.9-1.2-5.5 2-10.5 5-14.7 9-4.3 3.9-7.7 8.7-10.2 13.9-2.4 5.3-3.8 11-4 16.8-0.3 5.8 0.6 11.6 2.6 17.1 4 10.9 12.4 20.1 22.9 25z"/>
					<path id="&lt;Path&gt;" class="s1" d="m138.2 87.9c-4.6-2.1-8.8-5.1-12.2-8.8-3.5-3.7-6.1-8.1-7.9-12.8-1.8-4.7-2.6-9.8-2.4-14.9 0.2-5 1.4-10 3.5-14.7 2.2-4.5 5.2-8.7 8.9-12.1 3.8-3.5 8.2-6.1 12.9-7.9 4.8-1.7 9.8-2.5 14.9-2.3 5 0.3 10 1.5 14.6 3.7-9.2-4.2-20-4.6-29.4-1.1-4.7 1.8-9 4.4-12.7 7.8-3.7 3.4-6.7 7.6-8.8 12.1-2.1 4.6-3.3 9.5-3.5 14.5-0.2 5 0.6 10.1 2.3 14.8 3.4 9.4 10.7 17.4 19.8 21.7z"/>
					<path id="&lt;Path&gt;" class="s1" d="m140.6 82.7c-3.9-1.8-7.4-4.3-10.4-7.5-2.9-3.1-5.2-6.8-6.7-10.9-1.5-4-2.2-8.3-2-12.6 0.1-4.3 1.2-8.6 3-12.5 1.8-3.9 4.4-7.5 7.5-10.4 3.2-2.9 6.9-5.2 11-6.7 4-1.4 8.4-2.1 12.7-1.9 4.2 0.2 8.5 1.3 12.4 3.1-7.8-3.5-17-3.8-25-0.8-4 1.5-7.7 3.7-10.8 6.6-3.1 2.9-5.7 6.4-7.4 10.3-1.8 3.8-2.9 8-3 12.3-0.2 4.2 0.5 8.5 1.9 12.5 2.9 8 9.1 14.8 16.8 18.5z"/>
					<path id="&lt;Path&gt;" class="s1" d="m170.9 10.4c5.6 2.1 10.8 5.2 15.3 9.3 4.4 4 7.9 8.9 10.5 14.4 2.5 5.4 3.9 11.3 4.2 17.3 0.2 6-0.7 12-2.8 17.6-2.1 5.7-5.3 10.9-9.4 15.2-4 4.4-9 8-14.4 10.5-5.5 2.5-11.4 3.9-17.4 4.1-5.9 0.2-11.9-0.8-17.5-2.9 11.2 4.1 24 3.6 34.8-1.5 5.4-2.5 10.2-6 14.3-10.4 4-4.4 7.1-9.5 9.2-15.1 2-5.6 3-11.6 2.8-17.5-0.2-5.9-1.6-11.8-4.1-17.2-4.9-10.9-14.3-19.6-25.5-23.8z"/>
					<path id="&lt;Path&gt;" class="s1" d="m169.3 14.8c5 1.8 9.7 4.7 13.7 8.3 3.9 3.6 7.2 8 9.4 12.9 2.3 4.9 3.6 10.2 3.8 15.6 0.2 5.4-0.6 10.8-2.5 15.8-1.8 5.1-4.7 9.7-8.4 13.7-3.6 3.9-8.1 7.1-13 9.4-4.9 2.2-10.2 3.5-15.5 3.7-5.4 0.1-10.8-0.8-15.8-2.7 10.1 3.7 21.5 3.2 31.2-1.3 4.8-2.3 9.2-5.5 12.8-9.4 3.7-3.9 6.5-8.5 8.3-13.5 1.9-5 2.7-10.4 2.5-15.7-0.2-5.3-1.4-10.6-3.6-15.5-4.5-9.7-12.8-17.5-22.9-21.3z"/>
					<path id="&lt;Path&gt;" class="s1" d="m167.2 20.4c4.3 1.6 8.4 4 11.7 7.1 3.4 3.1 6.2 6.8 8.1 11 2 4.2 3.1 8.7 3.3 13.3 0.2 4.6-0.6 9.2-2.2 13.6-1.6 4.3-4 8.3-7.2 11.6-3.1 3.4-6.9 6.2-11.1 8.1-4.1 1.9-8.7 2.9-13.3 3.1-4.6 0.1-9.2-0.6-13.4-2.3 8.6 3.2 18.4 2.7 26.6-1.2 4.1-1.9 7.9-4.6 11-7.9 3-3.4 5.4-7.3 7-11.6 1.6-4.3 2.3-8.8 2.2-13.4-0.2-4.5-1.3-9-3.2-13.2-3.7-8.3-10.9-15-19.5-18.2z"/>
					<path id="&lt;Path&gt;" class="s2" d="m115.6 21.9c-5.6 7-9.4 15.6-10.5 24.9l49.6 6.3z"/>
					<path id="&lt;Path&gt;" class="s2" d="m154.7 53.1l39.2 31.2c5.6-7 9.4-15.6 10.5-24.9z"/>
					<path id="&lt;Path&gt;" class="s3" d="m154.7 79.1c-14.3 0-25.9-11.6-25.9-26 0-14.4 11.6-26 25.9-26 14.4 0 26 11.6 26 26 0 14.4-11.6 26-26 26z"/>
					<path id="&lt;Path&gt;" class="s4" d="m154.7 77.3c-13.3 0-24.2-10.8-24.2-24.2 0-13.4 10.9-24.2 24.2-24.2 13.4 0 24.2 10.8 24.2 24.2 0 13.4-10.8 24.2-24.2 24.2z"/>
					<path id="&lt;Path&gt;" class="s4" d="m178.8 55.9q0.1-1.4 0.1-2.8c0-13.4-10.8-24.2-24.2-24.2-13.3 0-24.2 10.8-24.2 24.2q0 1.4 0.2 2.8z"/>
					<path id="&lt;Path&gt;" class="s5" d="m154.7 57.7c-2.5 0-4.5-2.1-4.5-4.6 0-2.5 2-4.6 4.5-4.6 2.6 0 4.6 2.1 4.6 4.6 0 2.5-2 4.6-4.6 4.6z"/>
				</g>
			</g>
		</g>
		<path id="4" class="s0" d="m1 86.7h47.5v16.3h22.7v-16.3h11.8v-18.7h-11.8v-63.3h-29.9l-40.3 63.5zm48-18.7h-24.3v-0.8l23.5-37.3h0.8z"/>
		<path id="4" class="s0" d="m228 86.7h47.5v16.3h22.7v-16.3h11.8v-18.7h-11.8v-63.3h-29.9l-40.3 63.5zm48-18.7h-24.3v-0.8l23.5-37.3h0.8z"/>
	</g>
</svg>