<svg version="1.2" xmlns="http://www.w3.org/2000/svg" viewBox="0 0 1206 1206" width="50" height="50">
	<title>504759</title>
	<style>
		.s0 { fill: #000000 } 
	</style>
	<g>
		<path class="s0" d="m579.5 16.1c-142.1 4.3-267.8 54.4-372 148.4-60.6 54.6-107.4 115.6-140.5 183-33.6 68.6-51.9 139.7-57.1 222-1.3 21.4-0.7 75.7 1 95 11.9 129.8 57.4 236.6 142.1 333.5 13.8 15.8 46.9 48.7 62 61.6 95.3 81.6 197.9 125.2 325 138.1 22.2 2.3 97.4 2.6 119.5 0.5 138.9-13.1 251-63.4 352.6-158.5 53.2-49.8 97.8-109.9 128.5-173.1 32.5-67.2 50.2-136.5 55.5-217.6 1.5-23.3 0.6-80.5-1.5-101.8-9.1-88.6-32.7-163.6-73.6-234.2-45.1-77.7-114.6-150.9-192.5-202.5-101.5-67.3-216.1-98.3-349-94.4zm-182.5 65.4c0 0.2-2.2 1.6-4.9 3-2.7 1.3-13.4 7.5-23.8 13.6-127.3 75.7-218 168.3-273.7 279.6-8.6 17.3-23.5 52.4-26.6 63.1-2.7 8.7-1.9 3 1.5-11.9 14.7-64.1 40.4-119.4 79.6-171 26.7-35.1 63.9-72.1 99.4-99 37.6-28.5 82.7-53.1 132-72 15.4-5.9 16.5-6.2 16.5-5.4zm14.8 39c-0.2 0.3-7.6 4.6-16.4 9.6-129.5 74.2-222.9 171.4-270.3 281.4-6.5 15.1-15.4 39-16.6 44.3-0.4 1.8-0.9 3.1-1.2 2.9-0.7-0.8 3.5-23 7.3-38.2 16.4-65.3 50.8-124.7 104.4-179.8 53.7-55.3 108.5-91 178-115.8 13-4.6 15.9-5.5 14.8-4.4zm14.2 37.9c0 0.2-4.4 2.8-9.7 5.6-30.9 16.5-74.6 45.5-103.7 68.8-82 65.7-136 142.1-161.3 228.2-4.8 16.4-5.2 16.3-2.3-0.7 10.9-63.9 37.5-120 81.8-172.2 13.4-15.7 43.4-44.8 59.2-57.4 37.8-30.1 77.6-52.3 122-67.8 15.5-5.5 14-5 14-4.5zm14.6 38.4c-0.3 0.5-4.2 3.1-8.8 5.8-4.6 2.6-17.5 11-28.8 18.5-117.2 77.9-187.9 164-213.6 260.1-2.3 8.7-2.4 8.9-1.9 3.6 0.9-9.6 5.3-31.6 8.9-44.8 11.5-42.1 32.4-82.7 60.3-117.4 13-16.2 40.7-43.7 57.3-57 14.1-11.2 38.5-27.9 53-36.1 14.3-8.2 37.8-19.3 54-25.6 8.5-3.3 16.4-6.4 17.5-6.9 2.6-1.1 2.7-1.1 2.1-0.2zm5.6 44.2c-6.2 3.3-18.7 10.4-27.8 15.9-104 62.8-166.5 143.6-188.8 243.8-2.7 12.2-3.1 10.1-1.5-8.2 5.6-64.7 32.8-119.5 85.4-172 31-31.1 65.8-54.8 105.1-71.6 12.3-5.3 35.4-13.8 37.4-13.8 0.8-0.1-3.6 2.6-9.8 5.9zm23.3 33.8c-0.6 0.5-5.7 3.7-11.5 7.2-66.4 40.2-120.1 88.1-151.5 135.5-19.5 29.3-32.9 60.9-38.4 90.9-2.4 12.5-2.6 9-0.6-6.9 6.8-52.4 24.1-96 52.1-131.8 8.8-11.2 32.8-34.4 44.6-43.2 27.5-20.4 57.4-35.8 94.3-48.5 12.5-4.4 12.2-4.3 11-3.2zm17.4 37.7c-0.3 0.2-4.8 3-10 6.1-74.1 44.5-125.2 94-150.4 145.9-10.2 21-15.9 39.6-18.9 62l-1.4 10-0.1-7c-0.6-37.2 12.5-80.3 34.4-113 32.7-48.8 79.7-84.3 134-101 10.9-3.4 13.3-4 12.4-3zm1.1 43.8c-30.2 16.7-53.3 34.9-78.6 61.8-35.6 38-57.2 79.9-61.8 119.2l-1.2 11.2-0.8-13c-1.2-21.8 1.7-45.9 8-65.4 15-45.8 55.2-84.4 113.4-108.6 8.1-3.4 30.1-11.4 31.5-11.4 0.6-0.1-4.2 2.8-10.5 6.2zm20 37.3c-55.9 30-91.7 66.7-110 112.9-5.8 14.5-11.6 40.9-12.2 54.5-0.3 8.4-1.5-9.7-1.7-24.5-0.1-16.6 1.7-30.2 6-44 12.3-39.7 44.2-70.9 93.9-92 7.6-3.3 30.1-11.4 31.5-11.4 0.6-0.1-2.8 2-7.5 4.5zm112.1 10.4c50.9 5.2 93.6 28.1 128.6 68.9 36.8 43 51.7 103.2 40.2 162.8-12.3 64-64.4 122.8-127.4 144.2-48 16.2-104.7 12.6-148.3-9.3-52.7-26.5-92.1-76.7-103.1-131.1-3.5-17.4-4.4-28.6-3.8-49.4 1.1-42.5 12.3-75.9 36.1-107.9 42.4-56.9 107-85.3 177.7-78.2zm-514.1 59.5c0 0.8-0.7 1.5-1.5 1.5-1.6 0-2-1.2-0.8-2.3 1.1-1.2 2.3-0.8 2.3 0.8zm706.5 233.5c-2.1 45.3-26.1 79.8-71.7 103-17.7 9.1-32.9 14.6-62.3 22.7-1.1 0.3 4.8-2.9 13-7 48.4-24.4 83.7-58 102-97.2 9.8-20.9 13.4-34.8 17.7-67.8 0.5-4.5 1.8 37.1 1.3 46.3zm38-1.9c-8.4 64.6-49.1 118.2-114 150-13.8 6.7-40.8 16.9-44.7 16.9-0.7 0 2.5-2.1 7.2-4.6 11.4-6.1 18.3-10.3 32.5-19.8 47-31.2 79.3-65 98.7-103.1 11.4-22.5 17.1-42.2 20.5-71 0.8-6.6 0.8-6.3 1.1 6.4 0.1 8-0.4 18.2-1.3 25.2zm78.6 11.1c-5.5 58-26.8 104.4-67.5 146.6-36.7 38-76.1 63.1-128.6 81.8-5.2 1.9-9.9 3.4-10.5 3.4-0.5 0 4-2.7 10-6.1 88-48.7 151.5-111.1 179.3-175.9 8-18.6 14.6-41.5 16.7-57.8 1.3-10.1 1.7-4.3 0.6 8zm-43.1 5.5c-4.7 26-10.9 45.2-21.5 67.2-11 22.6-23.2 39.7-41.1 57.3-20.5 20.2-43.1 35.3-71.7 48-11.5 5.1-43.5 16.3-44.3 15.6-0.2-0.3 3.5-2.9 8.3-5.8 4.9-2.9 15.8-10 24.3-15.8 65.2-44.2 108.4-88.8 131.8-136.1 6.9-13.8 13.5-31.7 14.8-40.1 0.4-2.5 0.9-4 1.1-3.3 0.2 0.6-0.5 6.5-1.7 13zm80.5 17c-6.7 31.5-20.3 69.6-33.3 93.3-42.7 78.2-101.8 126.5-183.6 150.1-7.6 2.2-14 3.8-14.2 3.6-0.2-0.2 3.8-2.1 8.9-4.3 10.5-4.5 34-17.3 47.2-25.8 45.3-29.2 93.5-76.3 127-124.1 20.8-29.7 38.5-65.5 46.7-94.7 1.8-6.4 3.5-11.4 3.7-11.3 0.2 0.2-0.9 6.1-2.4 13.2zm44.2-7.5c-0.3 0.8-0.6 0.5-0.6-0.6-0.1-1.1 0.2-1.7 0.5-1.3 0.3 0.3 0.4 1.2 0.1 1.9zm-2.7 13.5c-14.8 107.1-79.3 189.1-199.5 253.6-14.8 7.9-52.2 25.7-54.2 25.7-0.4 0 3.6-2.4 8.9-5.4 51.7-29.2 105.5-69.7 140-105.4 31.3-32.5 61.3-77.5 83.5-125.3 8.1-17.5 21.3-49.7 21.3-52 0-0.7 0.3-1 0.6-0.6 0.3 0.3 0.1 4.6-0.6 9.4zm43 2.3c0 0.5-0.4 1-1 1-0.5 0-1-0.5-1-1 0-0.6 0.5-1 1-1 0.6 0 1 0.4 1 1zm-3.5 16.6c-8.2 62.2-37.4 120.4-88.7 176.4-45.7 50-98.7 87.7-156.9 111.6-11.5 4.7-39.9 14.6-39.9 13.9 0-0.3 3.7-2.3 8.2-4.6 13.2-6.6 32-17.4 49.3-28.1 82.3-51.2 146.3-115.4 188.6-189.3 13.4-23.4 30.1-60.6 37.6-83.7 1.5-4.7 2.9-8.5 3.1-8.4 0.1 0.2-0.5 5.6-1.3 12.2zm37 27c-19.9 76.5-58.1 141.2-117.6 198.9-51.2 49.6-109.1 85.1-181.6 111.4-4.6 1.6-8.3 2.8-8.3 2.6 0-0.2 3.9-2.4 8.8-5 29.2-15.9 73.3-44.3 102-65.9 82.1-61.8 140.1-128.8 177.7-205.1 8.7-17.7 20.4-45.3 21.9-51.9 0.4-1.5 0.9-2.6 1.1-2.4 0.3 0.2-1.5 8-4 17.4zm45.2-8.4c-0.3 0.7-0.5 0.2-0.5-1.2 0-1.4 0.2-1.9 0.5-1.3 0.2 0.7 0.2 1.9 0 2.5zm-7.8 25.8c-9.7 34.1-18.8 58.3-31.9 85.7-37.1 77.1-87.2 134.9-157.5 181.8-38.4 25.5-75.6 44-122.5 60.9-24.2 8.8-24.5 8.7-7.5-0.2 42.9-22.5 70.7-40.1 105.5-66.5 50.5-38.4 98.4-85.7 137-135.2 12.5-16.1 34.3-48.5 44.6-66.5 10.3-18 24.6-47.3 31.4-64.2 3-7.5 5.5-13.6 5.7-13.5 0.1 0.2-2 8.1-4.8 17.7z"/>
		<path class="s0" d="m588.9 570.5c-5.6 1.8-11.3 7.7-12.8 13.2-1.4 4.9-1.4 13.7 0 18.6 2.3 8.4 10.7 13.9 21.7 14.1 17.2 0.3 25.1-8.2 24-25.8-0.9-13.9-7.6-20.6-21.2-21.3-4.4-0.2-8.9 0.3-11.7 1.2z"/>
	</g>
</svg>